<?xml version="1.0" encoding="UTF-8" standalone="no"?>
<svg
   version="1.1"
   id="Layer_1"
   x="0px"
   y="0px"
   width="100%"
   viewBox="0 0 1024 1024"
   enable-background="new 0 0 1024 1024"
   xml:space="preserve"
   sodipodi:docname="chesski-logo.svg"
   inkscape:version="1.3 (0e150ed, 2023-07-21)"
   xmlns:inkscape="http://www.inkscape.org/namespaces/inkscape"
   xmlns:sodipodi="http://sodipodi.sourceforge.net/DTD/sodipodi-0.dtd"
   xmlns="http://www.w3.org/2000/svg"
   xmlns:svg="http://www.w3.org/2000/svg"><defs
   id="defs20" /><sodipodi:namedview
   id="namedview20"
   pagecolor="#ffffff"
   bordercolor="#000000"
   borderopacity="0.25"
   inkscape:showpageshadow="2"
   inkscape:pageopacity="0.0"
   inkscape:pagecheckerboard="0"
   inkscape:deskcolor="#d1d1d1"
   inkscape:zoom="0.796875"
   inkscape:cx="511.37255"
   inkscape:cy="512"
   inkscape:window-width="1920"
   inkscape:window-height="1016"
   inkscape:window-x="0"
   inkscape:window-y="27"
   inkscape:window-maximized="1"
   inkscape:current-layer="Layer_1" />&#10;<circle
   style="fill:#ffffff;fill-opacity:1"
   id="path21"
   cx="513.15411"
   cy="513.30383"
   r="512" /><path
   fill="#000000"
   opacity="1.000000"
   stroke="none"
   d=" M581.721924,233.023666   C617.781677,240.913651 651.530518,253.317108 681.281677,274.961212   C707.508789,294.041626 728.765442,317.325897 740.092224,348.353088   C749.719727,374.725403 749.889893,401.401764 741.687561,428.201630   C741.225037,429.712708 740.156250,431.197052 740.812378,433.046814   C743.182800,433.719421 744.564270,431.938080 745.947876,430.748199   C763.057007,416.035248 777.270447,399.015259 787.353821,378.684601   C788.884460,375.598419 788.777466,373.407990 786.489136,370.614441   C773.234436,354.433258 770.551636,331.476654 780.546936,313.931305   C791.864807,294.064423 809.349976,283.754150 832.324829,285.963837   C854.039185,288.052277 869.629639,299.979706 877.162781,320.680023   C887.667603,349.545990 872.728394,379.841431 843.571594,389.730316   C839.316467,391.173553 837.049255,393.450165 835.800110,397.725494   C818.533142,456.823212 801.023804,515.850159 784.548645,575.177185   C783.255798,579.832886 783.463989,583.276672 787.118958,587.248779   C800.750732,602.063293 800.912842,618.919250 792.986755,636.460449   C791.349854,640.083252 789.304626,643.599365 786.948486,646.796875   C784.754028,649.775024 784.539368,651.980774 786.820190,655.144043   C803.051575,677.654785 795.108154,703.948547 773.880066,717.417297   C760.091614,726.165833 744.664551,730.203064 729.157898,734.003052   C706.183350,739.633301 682.747559,742.647034 659.279724,745.342590   C645.922546,746.876892 632.551147,748.287781 619.124573,749.761047   C618.531067,752.411499 620.418701,753.886353 621.595642,755.548218   C645.285095,789.000305 662.740662,825.521606 675.342834,864.442383   C676.737671,868.750061 677.231445,873.031372 673.902771,876.681763   C670.729431,880.161804 666.779419,879.368530 662.745667,878.373779   C645.000671,873.997864 628.186035,867.268738 612.359497,858.191589   C607.982361,855.681152 606.057129,856.623474 604.188599,861.026306   C600.288513,870.216431 596.387451,879.447998 590.924500,887.867920   C584.815552,897.283386 578.658081,897.982178 570.884033,889.694824   C560.702942,878.841187 552.167786,866.704712 544.686646,853.849548   C533.457458,834.553955 522.300903,815.215759 514.285034,794.276367   C514.117615,793.839050 513.682251,793.504272 513.330444,793.070557   C511.043823,793.637817 511.088745,795.811035 510.434326,797.351685   C498.468262,825.520569 484.052368,852.295715 465.425629,876.678101   C461.582581,881.708740 457.484772,886.529419 452.932648,890.954529   C446.379944,897.324463 440.786377,896.684143 435.868347,888.841736   C430.547943,880.357727 426.222748,871.342590 421.870667,862.342834   C418.575470,855.528687 418.515747,855.472900 411.646362,859.153503   C396.913086,867.047546 381.643066,873.588623 365.427887,877.794983   C363.979187,878.170837 362.517822,878.511536 361.046936,878.786011   C353.277679,880.235901 348.449036,875.359741 349.951813,867.444397   C351.136322,861.205383 353.482086,855.311584 355.710785,849.391052   C368.684998,814.924316 385.164856,782.318787 407.060516,752.583557   C407.534180,751.940369 407.855743,751.185059 408.436646,750.144592   C395.157990,747.699158 382.059326,746.896484 369.058899,745.326782   C334.715271,741.180054 300.250244,737.595947 267.553131,725.195618   C260.848053,722.652710 254.466125,719.419434 248.680695,715.061707   C228.952286,700.201721 224.925125,675.478516 239.228683,655.323792   C241.538315,652.069336 241.831284,650.129028 239.345398,646.410522   C228.451187,630.113953 224.086578,612.794678 234.194809,594.304321   C235.616577,591.703613 237.324631,589.009888 239.561920,587.159180   C243.586456,583.830139 243.549164,580.291138 242.238937,575.683777   C227.447464,523.669922 212.390335,471.734467 196.869904,419.933136   C194.529877,412.123016 192.302246,404.277588 190.152069,396.413086   C189.374344,393.568481 187.835037,391.991150 184.954895,391.036407   C161.110001,383.131836 147.913101,366.377655 145.455017,341.586792   C143.975464,326.664764 149.819931,313.878845 159.661438,302.876984   C174.265030,286.551575 196.947617,281.112549 217.157761,288.969391   C237.838028,297.009003 251.693298,316.916290 251.171280,338.535767   C250.882706,350.485992 247.311035,361.474548 239.353699,370.704590   C237.699234,372.623688 236.783813,374.402283 238.014587,376.987457   C248.759857,399.556946 264.597046,417.953400 284.053223,433.401550   C284.277710,433.579834 284.675598,433.539703 285.692749,433.738098   C284.801758,430.178131 283.994019,426.897736 283.159332,423.624207   C276.440582,397.274384 276.762146,371.202179 286.846863,345.706848   C295.404175,324.072845 309.271332,306.129333 326.271637,290.429596   C359.210236,260.010834 398.875854,243.362320 441.971161,233.731857   C454.132599,231.014175 466.462830,229.246140 480.219604,228.151718   C463.077393,211.751465 453.751678,193.396652 459.520935,170.009155   C462.863617,156.458618 470.484375,145.794815 481.912964,137.995895   C505.282867,122.048218 538.058167,126.799339 556.008972,148.462280   C573.289368,169.316147 574.445129,202.967850 545.460632,228.257050   C557.933044,228.945877 569.661438,230.674789 581.721924,233.023666  M709.294983,512.066833   C709.994385,508.967987 712.335876,509.347137 714.449707,509.855804   C728.993286,513.355713 743.799438,515.760559 758.109741,520.215332   C760.507935,520.961853 763.288330,521.379395 764.745850,523.783691   C763.244629,526.932312 758.638855,525.561646 757.838806,529.332947   C760.660522,531.107239 763.687256,531.780701 767.502625,532.431580   C780.410095,489.747772 793.287231,447.164398 806.529663,403.372986   C795.261353,419.771210 783.772522,434.369873 769.893494,446.989563   C743.274048,471.193726 712.014221,480.079498 676.667236,475.546234   C647.409424,471.793915 623.350830,457.661041 602.192566,437.830353   C577.251282,414.453949 562.124634,384.805756 549.387878,353.862671   C534.957458,318.805267 526.317200,282.006836 518.736816,244.963516   C518.128906,241.992752 517.917725,239.179153 513.520935,239.136490   C509.219635,239.094772 508.160797,241.443588 507.504150,244.814270   C504.323242,261.141785 500.307861,277.278778 496.245056,293.401093   C486.933167,330.352844 474.921509,366.346497 455.057709,399.101959   C428.206329,443.379974 391.120056,472.767700 337.493225,476.669800   C319.015564,478.014313 301.336273,474.660400 284.741852,466.290161   C261.406342,454.519745 243.404083,436.788605 228.514633,415.617065   C225.834091,411.805573 223.043579,408.071411 220.303833,404.301544   C232.296585,445.007996 244.712189,485.377747 257.086578,525.760132   C259.453003,533.482605 259.445190,533.540100 266.701447,530.030457   C267.260010,529.760315 267.739746,529.327209 268.173004,529.027344   C267.782654,526.192383 264.312958,526.060242 263.862305,522.531616   C280.914429,516.204224 298.696503,512.410522 317.173279,509.212372   C316.651520,513.321045 312.656799,514.099792 312.022491,517.188110   C313.782318,518.485657 315.398865,517.773438 316.982300,517.520691   C327.000458,515.921570 336.987213,514.083435 347.042389,512.767578   C368.294037,509.986572 389.454926,506.456787 410.906891,505.289307   C424.539398,504.547424 438.151031,503.332489 451.817993,503.738434   C456.867584,503.888458 459.680450,507.264160 459.432953,512.289734   C459.194305,517.135254 455.721771,519.918274 449.832336,520.346436   C436.061188,521.347534 422.251740,522.059143 408.542725,523.629150   C379.803558,526.920471 351.137421,530.737427 322.705963,536.257935   C304.064606,539.877502 285.695251,544.532776 267.306549,549.169678   C265.058014,549.736694 262.736206,550.386353 263.560272,553.300171   C265.170288,558.992798 266.448425,564.822266 269.048309,570.328796   C272.209442,569.626587 275.177643,569.470764 277.837372,567.895996   C276.833801,565.323364 272.823792,565.701599 273.140533,562.342468   C273.602142,561.395752 274.443268,560.946960 275.473541,560.730835   C283.294586,559.090515 291.133057,557.526917 298.929443,555.776184   C327.392761,549.384644 356.262390,545.485107 385.187714,542.101990   C408.335144,539.394653 431.546936,536.994019 454.934967,537.937439   C458.513336,538.081787 462.039154,538.415405 465.906158,539.744873   C465.034729,540.312500 464.681732,540.635132 464.266113,540.797607   C462.189728,541.609314 458.035492,539.887695 458.447266,543.480408   C458.789276,546.464294 462.661102,544.793091 464.945557,545.020203   C467.582947,545.282349 470.271210,545.048035 472.937042,545.007080   C495.100494,544.666321 517.272217,544.254089 539.422302,545.151794   C547.771912,545.490173 556.060608,545.323486 564.371155,544.852417   C567.066101,544.699707 570.792114,544.265503 571.002625,541.634583   C571.337708,537.446594 573.912781,538.241882 576.150635,538.046509   C584.992737,537.274475 593.771729,538.803467 602.593872,538.931152   C605.031860,538.966370 606.420532,539.870300 606.826660,542.720581   C607.280334,545.904419 609.658997,547.471069 613.015076,548.113098   C628.932678,551.158020 645.151001,551.083008 661.174500,552.978638   C662.496948,553.135071 663.977234,553.259644 666.547974,551.471191   C654.980835,550.222290 645.554321,546.236694 635.547607,544.218567   C639.834778,542.081665 643.876221,543.625549 647.958069,543.936279   C673.546387,545.884033 698.817017,550.082825 724.000671,554.807983   C732.003723,556.309570 739.777771,559.191711 747.814087,560.290039   C752.054138,560.869507 753.108337,561.833923 752.096313,565.684326   C751.610107,567.533997 751.470825,569.225159 754.168274,569.820374   C756.755859,570.391418 757.929626,569.419006 758.514587,567.117371   C759.621033,562.763672 760.598938,558.370667 761.897339,554.074707   C762.786255,551.133850 761.955017,549.882446 758.977173,549.170044   C748.464355,546.655029 738.040710,543.764282 727.518127,541.293335   C704.026367,535.777161 680.227173,531.946777 656.331177,528.685425   C629.965454,525.087097 603.589539,521.574890 576.981079,520.286011   C570.601807,519.976990 566.785339,516.911011 566.714722,511.775146   C566.642090,506.491058 570.151672,503.567749 577.006897,503.744354   C589.982788,504.078552 602.943542,504.729828 615.902832,505.574829   C639.325439,507.102020 662.493164,510.780884 685.776794,513.456665   C695.768555,514.604919 705.558716,517.351929 715.810730,517.804199   C713.183289,516.595032 708.954163,517.534119 709.294983,512.066833  M648.464478,586.784180   C654.138367,585.227356 659.812256,583.670532 665.486145,582.113708   C665.424377,581.606506 665.362671,581.099243 665.300964,580.592041   C563.179749,568.060974 461.055084,568.142639 358.875732,581.240295   C375.080017,584.878845 390.631592,590.190308 405.871796,596.522522   C433.645081,608.062073 459.042023,623.393799 481.306885,643.694275   C483.513794,645.706482 485.275116,645.350403 487.571045,644.497437   C504.288666,638.286743 521.173218,638.281372 537.938049,643.976257   C542.089844,645.386597 544.551514,644.491577 547.659302,641.883484   C577.348267,616.968323 610.388245,598.091553 648.464478,586.784180  M607.521362,681.044739   C609.657410,680.740784 611.801025,680.481567 613.928345,680.125549   C627.960632,677.777344 641.599060,672.998596 656.109680,673.521729   C658.674866,673.614258 661.353760,672.940308 663.497925,670.970581   C664.763550,669.807861 667.947449,669.758972 667.907776,670.387390   C667.689148,673.847473 669.880981,672.408508 671.184143,672.255981   C684.744385,670.668091 698.587769,673.870239 712.054626,669.172668   C716.765564,667.529297 722.356079,668.902161 727.416626,669.831604   C741.711731,672.457397 757.278748,671.536194 768.117798,684.206116   C771.049561,677.199280 768.803101,670.208008 762.478394,666.173279   C757.630066,663.080261 752.136230,661.614929 746.611755,660.353027   C732.093506,657.036743 717.334656,656.170471 702.492859,656.116821   C698.475037,656.102295 695.051819,654.716492 694.798340,650.056885   C694.549927,645.490479 697.230347,642.762451 701.605896,642.324158   C706.228271,641.860962 710.912537,642.008484 715.570312,641.909851   C717.561829,641.867676 719.745422,642.257874 721.325012,640.799927   C724.896729,637.503052 729.222961,637.422058 733.555481,637.853455   C740.829956,638.577881 748.188354,638.906372 755.258240,640.979431   C759.069153,642.096802 761.704468,642.146973 763.358093,637.461609   C765.128662,632.444885 762.075500,631.113220 758.773376,629.847046   C751.093201,626.902222 742.974548,625.853271 734.848511,625.386353   C723.871155,624.755798 712.867798,624.761292 701.891907,625.754333   C698.879272,626.026917 696.732422,624.797607 695.518494,622.007996   C694.216125,619.015259 695.040833,616.475220 697.258484,614.290039   C699.027771,612.546692 701.374817,612.049805 703.683289,611.868225   C709.987366,611.372253 716.304993,611.035400 722.621277,610.714233   C726.160645,610.534180 729.925964,611.459595 732.330200,607.477112   C732.854736,606.608154 734.849060,605.959961 735.944641,606.204285   C748.245422,608.948120 762.247864,606.435120 771.809143,617.812012   C774.393982,608.233215 769.944946,601.731812 758.928406,599.373291   C740.179749,595.359497 721.186340,595.191162 702.293640,597.558594   C655.614929,603.407715 613.136536,620.196472 575.050598,647.903442   C570.940613,650.893372 566.888672,653.995056 563.597900,657.807068   C565.773682,661.166687 567.553650,659.984375 570.051270,658.595825   C576.155090,655.202393 580.410400,647.331726 589.306030,650.235229   C589.801819,650.397034 590.608154,649.288940 591.358948,649.038513   C597.859192,646.870667 603.508301,642.874512 609.853699,640.414062   C619.781433,636.564453 621.009460,637.075684 623.215149,644.875977   C618.727417,650.994446 612.295532,654.077087 605.955261,657.424866   C596.078369,662.640076 586.726013,668.759094 577.684753,675.309937   C572.256897,679.242676 572.000122,682.475037 576.348511,688.557312   C586.646301,681.815247 597.748108,676.845337 609.658081,673.791138   C611.019531,678.011658 607.249268,678.447327 607.521362,681.044739  M271.919617,628.399780   C270.323059,628.867371 268.680817,629.218506 267.138306,629.823792   C261.918976,631.871826 261.375275,633.145325 263.292419,638.554016   C263.729797,639.787964 264.307831,640.971985 264.983185,642.560120   C272.746460,640.117798 280.609314,638.880737 288.543427,638.096008   C291.822021,637.771729 295.214600,637.487549 294.500092,642.304749   C304.477356,643.591064 314.118805,641.221252 323.751648,642.418640   C329.798645,643.170288 332.512482,645.600159 332.227692,649.599854   C331.906494,654.111023 328.872101,656.394409 322.944946,656.300232   C311.942108,656.125366 300.959595,656.343384 290.111145,658.351379   C280.961639,660.045044 271.645325,661.352356 263.457367,666.246704   C256.661041,670.309143 254.507584,678.658142 258.356354,685.645752   C261.818665,678.010193 268.902649,675.454712 276.051605,673.971741   C294.962769,670.049072 314.076599,667.372559 333.473907,667.796265   C359.063202,668.355225 383.916504,673.959045 408.844513,679.010681   C411.357666,679.519897 413.888428,680.715393 416.604889,678.331421   C411.430115,672.553284 403.322723,672.596680 397.943085,667.701599   C417.198273,671.459106 434.494537,680.185730 451.704865,689.199768   C454.709412,679.742493 454.608429,679.026855 447.160217,674.067322   C436.214294,666.778870 425.305206,659.454224 413.396454,653.693298   C407.800568,650.986267 402.779236,647.091614 397.497559,643.735168   C402.519501,644.406311 406.920959,645.159851 408.061798,638.717285   C418.951019,638.366516 426.285309,646.219299 435.418304,649.248352   C436.245697,648.453064 434.931580,647.118591 436.971252,646.297913   C442.833344,650.039368 449.578278,653.253784 454.718079,658.840759   C456.703125,660.998535 458.700684,662.782593 461.330383,659.942200   C464.028992,657.027344 460.869415,655.819092 459.318176,654.513794   C449.095764,645.912415 438.106293,638.392334 426.503418,631.774780   C386.063446,608.710144 342.676392,596.303284 296.011505,596.463623   C284.924103,596.501709 273.649170,596.857605 262.977997,600.703979   C255.308609,603.468262 252.437088,609.926880 255.072891,617.941345   C255.537628,617.857849 256.251404,617.944336 256.457184,617.661438   C263.335297,608.204773 274.360443,609.450012 283.944977,607.115112   C286.284607,606.545166 289.169006,606.960449 286.780060,611.115356   C298.731110,610.285889 310.202942,610.779541 321.656708,611.742310   C327.356262,612.221375 330.775116,615.675964 330.190399,620.104492   C329.574799,624.767273 325.897583,626.463135 319.886993,625.952209   C304.087860,624.609253 288.302734,624.520142 271.919617,628.399780  M587.754028,772.770020   C591.407104,777.722778 595.446716,782.417664 598.252502,787.944275   C600.058716,791.502014 598.958984,794.618530 595.824707,796.642883   C592.665710,798.683228 589.738464,797.596069 587.572754,794.651245   C585.600586,791.969543 583.710510,789.226257 581.829224,786.479309   C574.870972,776.319275 565.917542,767.895081 558.281372,758.428406   C551.886292,762.713318 551.791382,762.764160 555.109436,768.958008   C561.002075,779.957825 567.026001,790.887146 572.985840,801.851074   C574.016602,803.747314 575.150818,805.598816 575.252441,807.864136   C575.385559,810.830261 574.387573,813.108337 571.469116,814.194092   C568.622986,815.253052 566.208069,814.627075 564.487000,812.037842   C563.289673,810.236572 562.186279,808.372314 561.057129,806.526306   C554.542542,795.875854 547.928101,785.284302 541.580566,774.535156   C539.482300,770.981750 536.238281,770.977722 533.485474,771.968628   C530.257874,773.130493 532.386719,776.221313 532.648621,778.510132   C532.722168,779.152466 533.082031,779.763611 533.320984,780.385071   C544.060425,808.318420 558.109070,834.534180 574.479492,859.536804   C575.420837,860.974548 576.067932,862.914490 578.580627,863.182251   C583.775757,854.143677 587.859741,844.506226 592.242432,835.007324   C595.957581,826.955322 600.859619,825.530579 608.175110,830.342896   C618.349854,837.036133 628.897217,843.046692 639.863098,848.326538   C641.556885,849.142151 643.194336,850.464966 646.243835,849.737000   C626.689636,807.807800 606.868591,766.670959 573.606873,733.344604   C569.337036,741.150757 569.348206,741.139221 574.706909,746.314636   C579.534424,750.977051 583.647400,756.184875 587.579712,762.353271   C584.394226,762.034668 582.564148,759.046692 579.378906,761.447327   C582.053711,765.068481 584.686829,768.633301 587.754028,772.770020  M459.791016,789.364868   C464.023895,781.807556 468.129822,774.174866 472.549408,766.728333   C474.432922,763.554810 474.065460,761.580444 470.735779,760.047791   C469.565887,759.509277 468.827148,758.151489 466.901611,758.172119   C463.459229,762.286682 459.689026,766.491394 456.260529,770.958313   C450.379730,778.620300 444.713806,786.447144 438.954956,794.202820   C436.659515,797.294189 433.558777,798.491821 430.234772,796.509399   C426.618256,794.352539 426.479095,790.846191 428.349548,787.319641   C429.280853,785.563721 430.456940,783.927856 431.614990,782.303772   C436.578796,775.342468 441.577057,768.405762 446.539948,761.491882   C444.761963,760.098206 442.593353,760.834778 441.611389,758.365356   C446.354523,753.016357 449.697906,746.179688 456.402588,742.007080   C455.197815,739.141968 455.270752,736.017944 452.585663,733.137573   C419.674744,766.847534 398.570618,807.261719 379.964294,850.182556   C383.864777,850.409851 385.645355,849.030640 387.543549,848.110229   C398.202515,842.942078 408.359436,836.888855 418.351135,830.542175   C426.554382,825.331482 430.252228,826.362671 434.374298,835.207947   C437.891388,842.754944 441.093140,850.448669 444.579163,858.010681   C445.437286,859.872192 445.922943,862.161743 448.598785,863.334656   C462.064789,845.371521 472.662994,825.869995 481.643646,805.638855   C478.847626,803.477844 477.814056,806.858948 475.214600,805.658630   C478.746521,797.836365 480.996155,789.473938 485.702881,782.046570   C487.815643,783.557922 485.970917,786.518127 488.622437,787.330566   C490.771515,786.443665 490.802887,784.683594 490.479828,782.780212   C490.255280,781.457275 489.810547,779.977173 491.647949,779.494568   C493.634949,778.972839 494.753906,777.689941 493.928741,775.885437   C493.108063,774.090698 492.683441,771.742065 489.761475,771.486450   C487.747650,771.310181 486.543335,771.455811 485.240875,773.275208   C478.921448,782.102600 474.021179,791.794739 468.130280,800.876343   C465.773346,804.509827 463.490479,808.197266 460.988312,811.728638   C459.124878,814.358582 456.366241,815.114136 453.465729,813.767944   C450.559937,812.419250 450.306091,809.618713 450.861237,806.873535   C451.183899,805.278015 451.943848,803.730103 452.721039,802.275085   C454.916931,798.163879 457.223267,794.111633 459.791016,789.364868  M490.388641,716.026855   C490.479675,714.364868 490.657074,712.702209 490.645782,711.040955   C490.610077,705.786865 491.350616,700.731567 494.388885,696.282227   C496.083496,693.800476 498.478394,692.956299 501.380463,693.811157   C504.011780,694.586304 504.961639,696.640320 505.105194,699.141052   C505.219635,701.134155 505.122437,703.138367 505.184021,705.135681   C505.630096,719.601013 504.347321,734.111084 506.300629,748.537048   C506.759186,751.923645 507.631287,755.039795 511.350189,756.314514   C512.709351,755.227600 510.895844,752.493652 513.468933,752.471741   C515.416321,752.667664 514.003235,755.662048 516.509583,755.446106   C519.624329,752.939026 520.690674,749.419312 520.700073,745.418823   C520.732971,731.427002 520.758911,717.435181 520.832825,703.443542   C520.843262,701.459229 520.787720,699.387085 521.314880,697.510742   C522.510437,693.255249 526.342407,692.109192 529.909119,694.769470   C532.934082,697.025574 533.921936,700.266113 534.439514,703.863220   C536.158264,715.807251 534.958313,727.809021 535.355103,739.776001   C535.413147,741.527100 534.728149,743.436646 536.372009,745.314880   C540.404358,744.571411 543.448669,742.229004 545.881165,738.934204   C548.910706,734.830627 550.682556,730.129272 551.577881,725.201660   C554.426636,709.523193 553.096863,694.062561 548.462952,678.875488   C547.214966,674.785522 544.819275,671.442322 541.000793,669.218567   C534.263916,665.295227 530.962219,667.029297 530.601013,674.681702   C530.493103,676.969238 530.659302,679.863770 527.468933,680.055359   C524.498657,680.233765 523.236023,677.939880 522.644287,675.267151   C521.961304,672.182190 521.234375,669.105164 520.439819,666.047180   C519.632629,662.940918 517.706848,661.352173 514.340515,661.255371   C508.975800,661.101074 505.996765,663.142761 504.593567,668.529358   C503.881744,671.261902 503.475586,674.075867 502.724884,676.796082   C502.136688,678.927551 500.680267,680.288025 498.289368,679.898560   C495.885803,679.506958 495.110901,677.620361 494.975067,675.515991   C494.902222,674.387878 495.359467,673.234802 495.485870,672.082947   C495.908752,668.229431 494.352753,666.818298 490.537537,667.684998   C483.525543,669.277893 479.250214,673.563721 477.532440,680.613525   C475.950714,687.104858 475.236237,693.730164 474.661346,700.322266   C473.644897,711.977234 473.855103,723.626526 478.319763,734.747375   C480.442627,740.035339 484.054565,743.686584 490.116089,745.486816   C489.953796,735.534180 489.595032,726.235596 490.388641,716.026855  M537.729919,162.788330   C536.533325,161.635223 535.406372,160.397888 534.129028,159.342545   C525.059387,151.849136 514.719421,148.683945 503.460144,152.653839   C491.707733,156.797623 483.980042,165.457596 481.554840,177.809280   C478.738617,192.152100 486.792175,206.350494 500.323212,212.314377   C513.206299,217.992676 529.441284,213.707245 538.420532,202.258057   C547.961365,190.092789 547.883179,175.733093 537.729919,162.788330  M617.694946,386.253754   C617.931763,384.269562 618.097595,382.273865 618.416748,380.303009   C620.512024,367.363983 620.751343,354.323700 617.971252,341.575043   C611.650818,312.591614 594.823242,290.345184 571.773743,272.417389   C565.226379,267.324860 558.213318,262.961792 549.567566,259.343262   C558.070801,289.678467 564.882324,319.544342 576.296082,348.087769   C576.535828,338.232025 575.604492,328.544952 573.248474,319.024323   C572.680176,316.728119 572.426270,314.446991 572.545044,312.106201   C572.679382,309.458405 574.067444,307.700134 576.567749,306.997833   C579.011475,306.311432 581.315308,306.876312 582.834045,308.962341   C583.890076,310.412811 584.710754,312.119568 585.271851,313.831329   C588.399841,323.373566 589.914490,333.244720 590.218567,343.229248   C590.517578,353.047882 590.207092,362.885773 590.126099,372.714905   C590.102661,375.560822 590.498962,377.986664 594.019043,378.233307   C595.365967,376.276581 595.595703,374.307343 595.660522,372.295593   C595.944641,363.481171 597.123535,354.700348 596.639038,345.856659   C596.433411,342.102631 597.643799,339.107513 601.709106,338.479065   C605.912415,337.829254 607.699402,340.726410 608.585754,344.201904   C609.072937,346.112396 609.230164,348.144287 609.264221,350.126099   C609.367310,356.123291 609.393066,362.123322 609.337158,368.121185   C609.307190,371.334412 609.218567,374.493378 612.206970,376.605133   C608.398376,384.442657 609.652039,392.814087 608.428894,400.808777   C608.061829,403.207733 609.775574,404.757355 612.795410,405.524689   C616.173950,399.889160 616.352295,393.348633 617.694946,386.253754  M464.273438,304.912750   C467.901672,290.230927 473.386688,275.999908 475.047424,260.544891   C447.830383,274.412811 427.120209,294.437286 414.703186,322.331818   C402.418030,349.930084 405.276001,377.919312 412.884857,406.114319   C417.420868,405.466095 418.226105,402.901855 417.800964,399.832153   C416.850433,392.968658 417.720276,385.816528 414.620361,379.286957   C414.144348,378.284241 414.225037,377.252930 414.986176,376.502014   C417.187378,374.330383 416.644958,371.587341 416.701416,368.966400   C416.876892,360.822601 416.157471,352.641846 417.701874,344.555176   C418.665314,339.510376 422.208221,337.106415 426.180908,338.903198   C429.371948,340.346466 430.063782,343.291199 430.124817,346.399506   C430.252319,352.892212 430.057251,359.398254 430.399506,365.877441   C430.653198,370.679535 430.930389,375.557922 432.527283,380.520813   C435.482025,377.559967 435.800323,374.345886 435.772797,370.925415   C435.677643,359.111755 435.163391,347.280487 436.693665,335.511383   C437.744690,327.428131 439.118011,319.392303 441.867584,311.692017   C443.010468,308.491180 445.307007,306.017792 449.069244,307.048523   C453.022675,308.131622 454.474579,311.195801 453.760651,315.205017   C453.469757,316.838440 453.000916,318.439270 452.668030,320.066223   C450.856018,328.923584 448.720886,337.746399 449.449493,348.013336   C450.616547,345.585266 451.408905,344.166290 452.001129,342.668243   C456.775696,330.590698 460.789398,318.264282 464.273438,304.912750  M223.049225,321.477722   C215.951584,312.212433 206.691650,307.068451 194.947510,308.786835   C181.972046,310.685333 174.129959,319.076691 169.995834,331.215271   C163.139618,351.346436 181.686691,371.710876 200.894150,369.461395   C223.966904,366.759338 235.584305,342.011902 223.049225,321.477722  M854.469238,326.139374   C853.702881,324.852386 853.007935,323.516052 852.158997,322.286102   C844.538269,311.245972 830.869873,306.034943 818.994751,309.609711   C806.749207,313.295990 798.452637,324.466034 797.959106,337.623932   C797.254089,356.421082 813.440186,371.408173 829.951782,369.420776   C851.829285,366.787537 862.835449,347.444550 854.469238,326.139374  M335.995636,409.621887   C337.299500,414.427216 338.603333,419.232544 339.907196,424.037872   C337.362274,400.288422 337.412750,376.860046 342.995087,353.563416   C348.606628,330.144897 360.346436,309.763947 373.973480,290.197540   C361.995941,296.120636 352.156067,304.500458 342.880798,313.643097   C311.736145,344.342346 300.745392,380.452362 313.400391,422.956818   C314.133362,425.418640 315.219147,427.333130 318.264557,426.710602   C321.343201,426.081299 321.214783,424.084503 321.059509,421.417297   C320.437927,410.740051 314.727814,400.505005 318.565063,389.381592   C319.491577,386.695740 318.573242,383.418060 318.791626,380.433655   C319.191589,374.967804 319.320007,369.445068 320.802429,364.123718   C321.756989,360.697296 324.081665,358.577148 327.768982,359.012329   C331.443573,359.446014 333.238007,361.926880 333.295685,365.584991   C333.332428,367.915710 333.228058,370.248505 333.193787,372.580475   C333.015167,384.736298 333.097717,396.874115 335.995636,409.621887  M708.419312,427.450775   C711.178467,428.794952 711.581421,426.565613 712.042542,424.879059   C713.357666,420.069000 714.423401,415.190338 715.757324,410.385925   C716.692261,407.018311 717.095947,403.845184 714.147644,401.286377   C717.544983,398.157104 717.669250,398.150787 717.863708,394.941895   C718.764709,380.073700 716.619751,365.687744 710.454956,352.062714   C700.758423,330.632202 686.203003,313.121033 667.115723,299.426453   C662.404724,296.046448 657.687195,292.548737 651.289490,289.945587   C680.754944,328.473145 693.760193,370.490204 686.529419,418.115875   C689.517639,411.982819 690.827148,405.557922 691.695007,398.998077   C693.119690,388.230164 692.923279,377.421722 692.751587,366.602570   C692.690552,362.749664 694.270935,359.409149 698.427612,358.988403   C702.635681,358.562439 704.594604,361.554321 705.342224,365.395050   C706.840942,373.094421 707.513062,380.859680 707.350281,388.705719   C707.269531,392.595215 706.575012,396.686951 710.579895,399.377136   C708.275208,401.776398 706.678162,404.018311 706.349060,407.020691   C705.824097,411.810883 705.242859,416.601685 704.452759,421.353577   C703.947571,424.391693 705.143311,426.122467 708.419312,427.450775  M655.336060,378.509399   C655.336060,383.414551 655.336060,388.319733 655.336060,393.255951   C660.065674,393.651306 661.603516,391.719238 661.652649,388.061218   C661.708557,383.900085 661.907166,379.741058 662.017822,375.580414   C662.554443,355.403381 658.812866,336.242096 648.697998,318.531433   C637.857056,299.549530 624.232117,283.282257 604.637756,272.755585   C602.005005,271.341187 599.462219,269.490509 596.038452,269.703796   C596.510742,272.265381 598.367126,273.307556 599.714050,274.697998   C624.245850,300.023590 636.494263,330.450409 637.308899,365.555756   C637.551453,376.007935 637.300964,386.470886 637.391541,396.927917   C637.407471,398.767914 636.650635,400.889954 638.650085,402.664307   C640.169495,400.405853 640.535278,398.018158 640.761169,395.535706   C641.556702,386.792084 643.268677,378.149017 643.148193,369.296234   C643.095825,365.443542 644.501343,361.671051 649.328308,361.828339   C653.988647,361.980225 655.224731,365.487274 655.306519,369.527832   C655.360413,372.190857 655.330139,374.855560 655.336060,378.509399  M389.690063,352.448883   C393.966797,319.720795 407.860840,291.798492 433.074738,269.024658   C429.514008,268.285706 428.042297,269.577759 426.448730,270.346558   C412.549713,277.051758 401.080048,286.827850 391.270325,298.601135   C369.277039,324.996765 360.557220,355.219299 365.197906,389.317474   C365.656006,392.683472 367.152191,393.515930 370.807251,392.935333   C370.807251,388.654480 370.757263,384.369934 370.821564,380.087128   C370.883881,375.935852 370.402496,371.755341 371.466003,367.649323   C372.332367,364.304382 373.928802,361.592621 377.842621,361.896484   C381.765259,362.201050 383.041595,365.223633 383.244812,368.584595   C383.485748,372.569275 383.207825,376.583954 383.405487,380.573212   C383.498230,382.444550 382.197113,385.493561 385.776398,385.498901   C389.417603,385.504364 388.588379,382.457306 388.632568,380.278442   C388.814850,371.295471 388.176544,362.283417 389.690063,352.448883  M386.458527,697.301758   C376.904358,695.805969 367.253174,695.397827 357.621582,694.869446   C334.611511,693.607056 311.696655,694.116821 289.130066,699.459351   C286.647522,700.047119 283.865295,700.434570 282.143250,703.226685   C285.594269,705.489075 288.897766,706.567932 292.849274,704.556519   C294.736633,703.595825 296.920990,703.047852 299.033722,702.726807   C322.861572,699.106262 346.821045,698.939941 370.762329,700.893127   C395.828613,702.938049 420.549835,707.268372 444.818024,713.987610   C446.501068,714.453674 448.153809,715.219971 451.346436,713.206604   C429.848358,704.961975 408.972046,699.758667 386.458527,697.301758  M669.934021,700.310364   C680.406738,699.493774 690.927612,699.326172 701.366577,700.082581   C712.892456,700.917725 724.649353,700.611084 735.688904,705.217224   C738.380798,706.340332 741.045288,705.148071 743.003601,702.709167   C741.039795,700.460693 738.580688,699.947021 736.190674,699.276917   C723.445557,695.703247 710.311768,694.913086 697.220459,694.439697   C681.263855,693.862732 665.307800,694.430725 649.397949,696.233582   C626.217712,698.860168 603.389526,703.000732 581.352417,710.867493   C579.661255,711.471130 577.344604,711.458496 576.906738,714.919617   C607.512390,707.423340 637.851929,701.202332 669.934021,700.310364  M678.385498,555.066528   C685.350220,555.607910 692.089417,558.270569 699.699890,557.590271   C688.774292,550.615356 673.414978,548.690552 669.717346,553.654541   C672.197327,554.890259 674.924255,554.575256 678.385498,555.066528  M655.089600,416.847748   C658.968689,411.183868 659.441589,404.746216 659.834839,398.325012   C657.664307,397.420532 655.439758,397.224396 655.225647,399.182587   C654.583801,405.050720 652.142151,410.899109 655.089600,416.847748  M371.688049,404.098602   C370.808899,399.826477 370.808899,399.826477 367.022369,401.109344   C367.926666,407.049164 368.481293,413.101166 372.191406,418.313293   C373.161560,413.702332 372.801300,409.270630 371.688049,404.098602  M388.705627,394.056976   C388.470703,392.689117 389.185577,390.989349 386.349274,389.689758   C383.526459,397.003143 387.468414,403.154510 389.505066,409.494873   C389.244690,404.625183 388.984344,399.755493 388.705627,394.056976  M735.449463,520.026611   C733.096313,517.505310 731.016541,517.878784 728.718567,520.738708   C731.302551,522.273560 733.438904,524.594849 735.449463,520.026611  z"
   id="path1"
   style="fill:#2d3047;fill-opacity:1" />&#10;<path
   fill="#000000"
   opacity="1.000000"
   stroke="none"
   d=" M507.520538,472.484558   C500.169220,463.394592 492.369781,455.207367 484.377411,447.183228   C477.935364,440.715485 477.905548,438.683319 484.205200,432.413025   C492.480865,424.175903 500.128693,415.429810 507.069092,406.034637   C511.421478,400.142883 515.262024,400.198090 519.637146,406.191467   C526.917664,416.164856 534.813049,425.565094 543.873047,433.989716   C548.038391,437.863007 548.082031,440.583160 544.225647,444.628998   C535.611389,453.666351 527.305359,462.972260 519.207581,472.474091   C514.374390,478.145294 513.220825,478.081177 507.520538,472.484558  z"
   id="path2"
   style="fill:#2d3047;fill-opacity:1" />&#10;<path
   fill="#000000"
   opacity="1.000000"
   stroke="none"
   d=" M764.269043,514.451660   C761.323303,515.401062 758.981018,514.347778 756.610779,513.654297   C741.633728,509.272186 726.587952,505.175781 711.258057,502.176758   C707.771362,501.494690 704.363098,500.376160 703.694580,496.081726   C702.878235,490.837708 706.393066,486.953064 711.566711,488.003418   C728.484436,491.438202 745.384766,495.047943 761.794678,500.482147   C769.421875,503.007965 770.525879,509.352844 764.269043,514.451660  z"
   id="path3"
   style="fill:#2d3047;fill-opacity:1" />&#10;<path
   fill="#000000"
   opacity="1.000000"
   stroke="none"
   d=" M311.695007,488.635925   C317.757080,487.734558 320.970703,489.412292 321.782440,493.640839   C322.566345,497.724365 320.009552,501.019287 314.762238,502.285767   C299.281464,506.022217 283.715088,509.400604 268.433624,513.947144   C262.479309,515.718689 259.447662,514.429932 258.196686,510.267426   C256.973389,506.197174 259.368744,502.280609 264.520050,500.568756   C279.819550,495.484558 295.632202,492.384857 311.695007,488.635925  z"
   id="path4"
   style="fill:#2d3047;fill-opacity:1" />&#10;<path
   fill="#000000"
   opacity="1.000000"
   stroke="none"
   d=" M770.514404,479.320496   C775.685486,482.046021 777.124451,484.784760 775.371033,488.353333   C773.244202,492.681824 769.828491,492.857910 765.701599,491.439117   C761.168091,489.880463 756.509033,488.688629 751.911499,487.314240   C749.467407,486.583618 747.307922,485.427338 746.009399,483.085449   C743.313110,478.222870 746.112305,473.351959 751.651184,473.706177   C758.186951,474.124115 764.024719,477.216644 770.514404,479.320496  z"
   id="path5"
   style="fill:#2d3047;fill-opacity:1" />&#10;<path
   fill="#000000"
   opacity="1.000000"
   stroke="none"
   d=" M258.681671,491.929657   C254.215775,492.468445 251.417648,490.903259 250.623413,486.754242   C249.831512,482.617401 252.058609,479.941528 255.694931,478.720398   C261.028595,476.929260 266.485413,475.487854 271.929932,474.049530   C275.949951,472.987579 279.293701,473.888275 280.679688,478.265472   C281.744843,481.629578 279.182129,486.060730 275.358643,487.256378   C269.981628,488.937897 264.510651,490.319122 258.681671,491.929657  z"
   id="path6"
   style="fill:#2d3047;fill-opacity:1" />&#10;<path
   fill="#000000"
   opacity="1.000000"
   stroke="none"
   d=" M619.782104,487.448792   C615.172974,484.554749 613.360718,480.710052 614.808533,475.818756   C615.960999,471.925262 619.004333,470.018127 622.998840,469.728119   C629.090149,469.285889 633.467773,473.561035 633.289856,479.704590   C633.127869,485.299500 628.879883,488.892334 622.956360,488.370636   C621.992188,488.285767 621.055298,487.891846 619.782104,487.448792  z"
   id="path7"
   style="fill:#2d3047;fill-opacity:1" />&#10;<path
   fill="#000000"
   opacity="1.000000"
   stroke="none"
   d=" M399.051666,488.090271   C394.550659,485.982117 392.177643,482.828552 392.834076,478.104675   C393.346405,474.417664 395.370636,471.643494 399.073059,470.495300   C403.191467,469.218109 406.565125,470.755859 409.309113,473.750549   C411.980682,476.666199 412.039612,480.089539 410.281708,483.424713   C407.975616,487.799988 404.169098,489.197296 399.051666,488.090271  z"
   id="path8"
   style="fill:#2d3047;fill-opacity:1" />&#10;<path
   fill="#000000"
   opacity="1.000000"
   stroke="none"
   d=" M254.582611,468.733765   C248.259079,470.095093 244.495834,468.314423 243.797394,463.712189   C243.240204,460.040680 243.737045,456.436188 247.808182,455.028290   C251.640656,453.702972 255.205231,454.751709 257.421631,458.282562   C259.997528,462.386017 258.866943,465.891602 254.582611,468.733765  z"
   id="path9"
   style="fill:#2d3047;fill-opacity:1" />&#10;<path
   fill="#000000"
   opacity="1.000000"
   stroke="none"
   d=" M769.440613,467.338806   C766.691711,463.269745 767.210693,459.657135 770.251770,456.625519   C772.571899,454.312561 775.587891,453.958496 778.542053,455.601837   C781.689026,457.352478 782.716248,460.253326 782.227966,463.661469   C781.370544,469.645874 775.144714,471.595032 769.440613,467.338806  z"
   id="path10"
   style="fill:#2d3047;fill-opacity:1" />&#10;<path
   fill="#000000"
   opacity="1.000000"
   stroke="none"
   d=" M519.019043,313.389435   C519.682129,317.174805 518.549255,319.770813 515.241699,320.935638   C512.952637,321.741699 510.572937,321.611176 508.845673,319.539490   C506.489746,316.713745 506.237579,313.797424 509.095551,311.157990   C511.838867,308.624481 515.829285,309.435455 519.019043,313.389435  z"
   id="path11"
   style="fill:#2d3047;fill-opacity:1" />&#10;<path
   fill="#000000"
   opacity="1.000000"
   stroke="none"
   d=" M786.473694,446.601074   C784.935120,446.253723 783.430481,446.891479 782.308289,445.271332   C783.370911,441.487274 785.658691,438.607056 789.684509,436.617462   C790.812866,440.847656 789.721008,443.978333 786.473694,446.601074  z"
   id="path12"
   style="fill:#2d3047;fill-opacity:1" />&#10;<path
   fill="#000000"
   opacity="1.000000"
   stroke="none"
   d=" M239.950012,447.109070   C237.010620,444.569702 235.854477,441.493500 235.596664,437.489197   C239.704590,438.659119 241.049957,442.076813 242.757965,444.765533   C243.977982,446.686066 241.690857,446.935120 239.950012,447.109070  z"
   id="path13"
   style="fill:#2d3047;fill-opacity:1" />&#10;<path
   fill="#000000"
   opacity="1.000000"
   stroke="none"
   d=" M277.675232,553.859985   C276.158051,557.226501 273.451721,556.089539 270.209442,556.995911   C272.185333,552.528748 274.550903,552.131592 277.675232,553.859985  z"
   id="path14"
   style="fill:#2d3047;fill-opacity:1" />&#10;<path
   fill="#000000"
   opacity="1.000000"
   stroke="none"
   d=" M620.019470,673.273926   C617.475952,674.036987 615.365540,675.997253 612.222534,673.703491   C616.098145,670.852905 619.940918,670.187744 624.445801,670.242188   C623.495117,672.280029 621.725220,672.432861 620.019470,673.273926  z"
   id="path15"
   style="fill:#2d3047;fill-opacity:1" />&#10;<path
   fill="#000000"
   opacity="1.000000"
   stroke="none"
   d=" M575.612061,844.384705   C576.419861,845.864929 577.101135,847.224548 575.609436,848.128357   C574.018494,849.092102 573.210327,847.633606 572.569336,846.545837   C571.622498,844.938965 569.966125,843.491028 570.946472,841.056274   C573.343872,840.779724 574.251282,842.658264 575.612061,844.384705  z"
   id="path16"
   style="fill:#2d3047;fill-opacity:1" />&#10;<path
   fill="#000000"
   opacity="1.000000"
   stroke="none"
   d=" M457.052948,839.793213   C456.550964,843.826965 454.534668,846.771545 451.497650,849.283936   C449.515015,845.068481 451.761353,841.257812 457.052948,839.793213  z"
   id="path17"
   style="fill:#2d3047;fill-opacity:1" />&#10;<path
   fill="#000000"
   opacity="1.000000"
   stroke="none"
   d=" M546.813232,717.190063   C548.473511,723.724121 545.846558,728.993408 542.806274,734.560669   C538.679626,728.786682 540.654785,720.592346 546.813232,717.190063  z"
   id="path18"
   style="fill:#2d3047;fill-opacity:1" />&#10;<path
   fill="#000000"
   opacity="1.000000"
   stroke="none"
   d=" M216.858002,352.805328   C214.235306,348.747314 214.709579,347.786560 219.959900,346.380707   C220.802246,349.352234 219.509293,351.293823 216.858002,352.805328  z"
   id="path19"
   style="fill:#2d3047;fill-opacity:1" />&#10;<path
   fill="#000000"
   opacity="1.000000"
   stroke="none"
   d=" M804.805786,347.119080   C804.267578,345.263489 803.084961,343.883392 803.917236,341.624908   C806.733765,344.082214 809.367126,346.379761 812.209534,348.859711   C811.246765,350.303864 810.364685,351.627014 809.338928,353.165680   C806.737061,351.997314 806.103394,349.502777 804.805786,347.119080  z"
   id="path20"
   style="fill:#2d3047;fill-opacity:1" />&#10;</svg>
